<svg xmlns="http://www.w3.org/2000/svg" width="444" height="125.903" viewBox="0 0 444 125.903">
  <g id="Component_2_1" data-name="Component 2 – 1" transform="translate(1 1.006)">
    <g id="Layer_3" data-name="Layer 3" transform="translate(-1 -1.075)">
      <path id="Path_1" data-name="Path 1" d="M199.481,269.3a30.74,30.74,0,0,1,2.7-1.771,52.032,52.032,0,0,1,21.773-7.146s7.162.159,8.263-5.838a58.3,58.3,0,0,1,14.675-36.3h0s2.026-4.977-2.935-6.588c0,0-3.19-2.616-8.757,4.69,0,0-7.21,8.406-8.263,10.879,0,0-4,3.924-5.774-1.388,0,0-5.695-11.166-7.306-20.9h0s-1.755-2.919-3.653-2.775l-1.9.144a4.083,4.083,0,0,0-3.653,3.653s.59,19-2.472,22.507c0,0-2.935,6.859-6.588,2.185,0,0-15.042-12.553-21.614-12.41,0,0-10.081-1.467-7.306,7.736,0,0,15.951,11.4,20.306,29.525,0,0,1.021,4.674,4.53,1.6a44.822,44.822,0,0,1,24.548-4.785s3.19.59,2.329-1.755-16.334-3.35-27.117.144h0a45.444,45.444,0,0,0-21.47-27.308s-1.021-1.755.877-2.185c0,0,9.092.447,24.4,13.877,0,0,6.285,3.94,10.225-2.632,0,0,3.94-9.347,2.919-24.979,0,0,.877-1.9,2.488-.734a209.241,209.241,0,0,0,6.955,22.507l.144.207c.447.622,2.664,4.785,6.971,4.881h0a4.785,4.785,0,0,0,2.823-1.914,33.257,33.257,0,0,0,3.015-5.1c2.648-4.785,9.3-11.166,10.926-10.639,1.117.383.861.718,1.117,1.6a.423.423,0,0,1-.223.4,3.427,3.427,0,0,0-.463.494l-.255.351c-1.483,2.058-9.012,12.649-10.847,17.913a121.647,121.647,0,0,0-3.653,14.021h0c-.271,0-11.612,2.074-30.546,16.8C196.626,268.2,196.913,271.006,199.481,269.3Z" transform="translate(-150.007 -143.879)" fill="#231f20" stroke="#231f20" stroke-miterlimit="10" stroke-width="1"/>
      <circle id="Ellipse_1" data-name="Ellipse 1" cx="6.396" cy="6.396" r="6.396" transform="translate(52.41 42.651)" fill="none" stroke="#231f20" stroke-miterlimit="10" stroke-width="2"/>
      <circle id="Ellipse_2" data-name="Ellipse 2" cx="5.423" cy="5.423" r="5.423" transform="translate(1 69.863)" fill="none" stroke="#231f20" stroke-miterlimit="10" stroke-width="2"/>
      <circle id="Ellipse_3" data-name="Ellipse 3" cx="4.961" cy="4.961" r="4.961" transform="translate(100.055 61.314)" fill="none" stroke="#231f20" stroke-miterlimit="10" stroke-width="2"/>
      <path id="Path_2" data-name="Path 2" d="M239.928,230.793a2.395,2.395,0,1,1-4.785-.191c.144-6.38,1.739-16.541,9.571-22.858,0,0,4.1-.654,2.121,3.8a16.94,16.94,0,0,0-4.594,7.05,1.037,1.037,0,0,0,1.372,1.244,29.237,29.237,0,0,0,12.027-8.167.988.988,0,0,0,.175-.271,16.621,16.621,0,0,0,1.244-8.773s-1.085-10.512-10.735-13.431a14.882,14.882,0,0,0-15.951,5.3l-.144.223c-.367.766-2.409,5.136-2.281,7.4,0,0-.51,2.488-2.265,1.5s-2.552-1.133-1.6-2.3a20.322,20.322,0,0,1,5.056-12.761,1.037,1.037,0,0,0,.239-1.117,21.5,21.5,0,0,0-11.453-11.166,1.18,1.18,0,0,1-.351-.159,22.012,22.012,0,0,0-22.794-1.6c-11.8,6.045-11.692,17.323-5.455,26.67l.112.144,3.812,4.1a2.233,2.233,0,0,1-1.26,3.35,3.35,3.35,0,0,1-4-1.739,33.1,33.1,0,0,1-6.939-8.645.973.973,0,0,0-.718-.526,13.383,13.383,0,0,0-10.368,2.887c-5.663,4.259-4.5,16.35-3.19,18.774v.128a7.225,7.225,0,0,0,4.4,3.079c2.616.415,5.806,2.121,9.826.255a1.037,1.037,0,0,0,.526-1.26A13.351,13.351,0,0,0,179,217.075a1.037,1.037,0,0,1,0-1.388,4.259,4.259,0,0,1,4.785-.989c3.764,1.212,8.55,16.3,5.439,23.8a1.037,1.037,0,0,1-1.117.606,6.668,6.668,0,0,1-.861-.16,3.413,3.413,0,0,1-2.6-3.413,60.32,60.32,0,0,0-.1-6.715,1.037,1.037,0,0,0-1.6-.782,11.405,11.405,0,0,1-6.667,1.946s-7.353-.207-10.56-3.19c0,0-9.283-6.285-5.471-22.2,0,0,1.452-10.671,16.828-13.1a1.053,1.053,0,0,0,.909-1.021c0-3.366,1-15.345,17.434-21.47,0,0,14.818-8.326,30.817,4.243a21.04,21.04,0,0,1,7.593,9.156,1.053,1.053,0,0,0,1.372.622,16.126,16.126,0,0,1,10.48-.718,28.281,28.281,0,0,1,15.488,13.654c3.717,6.939,2.552,18.056-4.02,21.486s-8.406,5.328-14.356,6.987a1.117,1.117,0,0,0-.558.367,11.022,11.022,0,0,0-2.265,6.013Z" transform="translate(-154.085 -165.22)" fill="#231f20" stroke="#231f20" stroke-miterlimit="10" stroke-width="2"/>
    </g>
    <text id="KITCHEN_KING" data-name="KITCHEN KING" transform="translate(119 98)" fill="red" font-size="50" font-family="SegoeUI, Segoe UI"><tspan x="0" y="0" fill="#000">KITCHEN</tspan><tspan y="0" xml:space="preserve" fill="red"> KING</tspan></text>
  </g>
</svg>
